<svg width="0" height="0" class="hidden">
  <symbol xmlns="http://www.w3.org/2000/svg" viewBox="0 0 512 512" id="icon-1">
    <path d="M397.124 78.431l-24.455 64.551c-1.215 3.207-5.511 3.771-7.513.986l-26.235-36.504a4.299 4.299 0 00-4.476-1.676l-32.864 7.729a4.3 4.3 0 01-5.211-3.397l-5.777-30.954a4.3 4.3 0 00-4.227-3.511H15c-8.284 0-15 6.716-15 15v35.395c0 18.956 2.06 37.43 5.969 55.212l13.833 15.189-5.277 14.813C49.634 310.755 144.491 382.049 256 382.049c111.508 0 206.365-71.294 241.475-170.786l-5.065-15.56 13.621-14.442c3.909-17.782 5.969-36.256 5.969-55.212V90.654c0-8.284-6.716-15-15-15h-95.855a4.3 4.3 0 00-4.021 2.777z" fill="#f1d0a7"></path>
    <path d="M497 75.654h-95.855a4.3 4.3 0 00-4.021 2.777l-24.455 64.551c-1.215 3.207-5.511 3.771-7.513.986l-26.235-36.505a4.298 4.298 0 00-4.476-1.676l-32.864 7.729a4.3 4.3 0 01-5.211-3.397l-5.778-30.954a4.3 4.3 0 00-4.227-3.511H256v306.395c111.508 0 206.365-71.294 241.475-170.786l-5.277-14.813 13.833-15.189c3.909-17.782 5.969-36.256 5.969-55.212V90.654c0-8.284-6.716-15-15-15z" fill="#edbc8b"></path>
    <path d="M333.226 257.01v-60.753c0-8.284-6.716-15-15-15h-125.01c-8.284 0-15 6.716-15 15s6.716 15 15 15h110.01v30.753H148.785v-45.753c0-8.284-6.716-15-15-15H5.988a254.082 254.082 0 008.555 30h104.242v45.753c0 8.284 6.716 15 15 15h184.441c8.284 0 15-6.716 15-15z" fill="#e17734"></path>
    <path d="M318.226 181.257H256v30h47.226v30.753H256v30h62.226c8.284 0 15-6.716 15-15v-60.753c0-8.284-6.716-15-15-15z" fill="#dc4e26"></path>
    <path d="M283.929 325.157c2.728-7.822-1.401-16.375-9.224-19.103l-28.352-9.889a14.996 14.996 0 00-15.057 3.089l-47.774 43.645-.102-27.626c-.03-8.266-6.74-14.945-14.999-14.945h-.056c-8.284.031-14.975 6.771-14.945 15.055l.167 45.338a254.057 254.057 0 0039.971 13.643l51.365-46.926 19.902 6.941c7.824 2.731 16.375-1.4 19.104-9.222z" fill="#e2a773"></path>
    <path d="M274.705 306.054L256 299.53v31.772l8.826 3.078c7.823 2.73 16.374-1.401 19.103-9.223 2.728-7.822-1.402-16.375-9.224-19.103z" fill="#d59a62"></path>
    <path d="M506.012 181.257H378.215c-8.284 0-15 6.716-15 15v60.753c0 8.284 6.716 15 15 15s15-6.716 15-15v-45.753h104.242a253.946 253.946 0 008.555-30z" fill="#dc4e26"></path>
    <path d="M414.931 436.346H97.069v-22.593c0-23.033 18.672-41.704 41.704-41.704h234.455c23.033 0 41.704 18.672 41.704 41.704v22.593z" fill="#b1705e"></path>
    <path d="M373.227 372.049H256v64.297h158.931v-22.593c0-23.033-18.671-41.704-41.704-41.704z" fill="#9e5f4e"></path>
  </symbol>
  <symbol xmlns="http://www.w3.org/2000/svg" viewBox="0 0 511.553 511.553" id="icon-2">
    <path d="M163.773 482.996c-24.813 0-45-20.186-45-45 0-24.813 20.187-45 45-45s45 20.187 45 45c0 24.814-20.187 45-45 45zm0-60c-8.271 0-15 6.729-15 15 0 8.272 6.729 15 15 15s15-6.728 15-15c0-8.271-6.729-15-15-15z" fill="#5b7726"></path>
    <path d="M256.1 235.634c-8.284 0-15-6.716-15-15v-84.709c0-8.284 6.716-15 15-15s15 6.716 15 15v84.709c0 8.284-6.716 15-15 15z" fill="#dae7fd"></path>
    <path d="M256.1 120.925c-.109 0-.215.014-.324.016v114.676c.109.002.214.016.324.016 8.284 0 15-6.716 15-15v-84.709c0-8.283-6.716-14.999-15-14.999z" fill="#bfdafe"></path>
    <path d="M317.593 101.673c0 34.14-27.676 61.816-61.816 61.816s-61.816-27.676-61.816-61.816c0-23.595 29.526-68.769 47.766-94.425 6.871-9.665 21.229-9.665 28.1 0 18.24 25.657 47.766 70.831 47.766 94.425z" fill="#ecbd3e"></path>
    <path d="M269.827 7.249C266.391 2.417 261.084 0 255.777 0v163.49c34.14 0 61.816-27.676 61.816-61.816 0-23.595-29.526-68.769-47.766-94.425z" fill="#e79e37"></path>
    <path d="M176.24 250.31h159.072v233.748H176.24z" fill="#dae7fd"></path>
    <path d="M255.777 250.31h79.536v233.748h-79.536z" fill="#bfdafe"></path>
    <path d="M160.832 240.678v77.428c0 17.589 14.259 31.849 31.849 31.849 17.589 0 31.849-14.259 31.849-31.849v-17.084c0-17.257 13.99-31.247 31.247-31.247 17.257 0 31.247 13.99 31.247 31.247v59.501c0 17.59 14.259 31.849 31.849 31.849s31.849-14.259 31.849-31.849V240.678c0-18.674-15.139-33.813-33.813-33.813H194.645c-18.674 0-33.813 15.139-33.813 33.813z" fill="#eff5ff"></path>
    <path d="M316.908 206.865h-61.131v62.91c17.257 0 31.247 13.99 31.247 31.247v59.501c0 17.59 14.259 31.849 31.849 31.849s31.849-14.259 31.849-31.849V240.678c-.001-18.674-15.14-33.813-33.814-33.813z" fill="#dae7fd"></path>
    <path d="M409.726 511.553H101.827c-23.529 0-42.602-19.074-42.602-42.602v-6.172c0-8.284 6.716-15 15-15h363.103c8.284 0 15 6.716 15 15v6.172c0 23.528-19.074 42.602-42.602 42.602z" fill="#738b2f"></path>
    <path d="M437.328 447.779H255.777v63.774h153.949c23.529 0 42.602-19.074 42.602-42.603v-6.172c0-8.283-6.716-14.999-15-14.999z" fill="#5b7726"></path>
  </symbol>
  <symbol xmlns="http://www.w3.org/2000/svg" viewBox="0 0 512 512" id="icon-3">
    <path d="M411.198 512c-15.845 0-28.252-4.589-36.877-13.638-16.608-17.426-15.2-46.732-13.57-80.666.548-11.415 1.115-23.219 1.115-35.528 0-8.284 6.716-15 15-15s15 6.716 15 15c0 13.029-.585 25.199-1.15 36.968-1.245 25.921-2.421 50.404 5.321 58.528 1.023 1.072 4.134 4.336 15.161 4.336 8.284 0 15 6.716 15 15s-6.716 15-15 15z" fill="#3d3532"></path>
    <path d="M100.802 512c-8.284 0-15-6.716-15-15s6.716-15 15-15c11.027 0 14.139-3.264 15.161-4.336 7.742-8.124 6.566-32.607 5.321-58.528-.565-11.768-1.15-23.938-1.15-36.968 0-8.284 6.716-15 15-15s15 6.716 15 15c0 12.31.567 24.113 1.115 35.528 1.63 33.934 3.038 63.24-13.57 80.666-8.625 9.049-21.033 13.638-36.877 13.638z" fill="#7b493b"></path>
    <path d="M382.459 336.984c-8.284 0-15-6.716-15-15V277h-44.918c-8.284 0-15-6.716-15-15s6.716-15 15-15h59.918c8.284 0 15 6.716 15 15v59.984c0 8.285-6.716 15-15 15z" fill="#504542"></path>
    <path d="M129.541 336.984c-8.284 0-15-6.716-15-15V262c0-8.284 6.716-15 15-15h59.918c8.284 0 15 6.716 15 15s-6.716 15-15 15h-44.918v44.984c0 8.285-6.716 15-15 15z" fill="#7b493b"></path>
    <path d="M319.038 346.415H192.962c-8.284 0-15-6.716-15-15v-102.44c0-9.517-7.743-17.26-17.261-17.26-8.284 0-15-6.716-15-15v-86.707c0-32.043 25.132-58.328 56.719-60.183 3.319-27.389 39.85-45.112 47.45-48.516a15.003 15.003 0 0112.26 0c7.601 3.403 44.131 21.127 47.45 48.516 31.587 1.854 56.719 28.14 56.719 60.183v86.707c0 8.284-6.716 15-15 15-9.518 0-17.261 7.743-17.261 17.26v102.44c0 8.284-6.716 15-15 15z" fill="#9e5f4e"></path>
    <path d="M309.58 49.825c-3.319-27.389-39.85-45.112-47.45-48.516a14.982 14.982 0 00-6.22-1.305v346.41h63.128c8.284 0 15-6.716 15-15v-102.44c0-9.517 7.743-17.26 17.261-17.26 8.284 0 15-6.716 15-15v-86.707c0-32.042-25.132-58.327-56.719-60.182z" fill="#7b493b"></path>
    <path d="M304.038 336.415v-107.44c0-20.818 13.531-38.536 32.261-44.82v-74.147c0-16.7-13.587-30.287-30.288-30.287h-12.75a15.002 15.002 0 01-14.399-19.203 23.87 23.87 0 00.961-6.695c0-5.161-10.904-15.003-23.823-22.069-12.91 7.061-23.821 16.907-23.821 22.069 0 2.259.323 4.512.961 6.695a15 15 0 01-14.399 19.203h-12.75c-16.701 0-30.288 13.587-30.288 30.287v74.147c18.73 6.284 32.261 24.002 32.261 44.82v107.44z" fill="#e17734"></path>
    <path d="M306.011 79.721h-12.75a15.002 15.002 0 01-14.399-19.203 23.87 23.87 0 00.961-6.695c0-5.161-10.904-15.003-23.823-22.069l-.089.05v304.612h48.128v-107.44c0-20.818 13.531-38.536 32.261-44.82v-74.147c-.001-16.701-13.588-30.288-30.289-30.288z" fill="#dc4e26"></path>
    <path d="M401.918 387.167H361l-15-10-15 10h-30l-15-10-15 10h-30l-15-10-15 10h-30l-15-10-15 10h-40.918c-8.284 0-15-6.716-15-15V345.84c0-13.13 10.644-23.774 23.774-23.774h274.288c13.13 0 23.774 10.644 23.774 23.774v26.327c0 8.285-6.716 15-15 15z" fill="#e79e37"></path>
    <path d="M393.144 322.067H256v65.101h15l15-10 15 10h30l15-10 15 10h40.918c8.284 0 15-6.716 15-15v-26.327c0-13.13-10.644-23.774-23.774-23.774z" fill="#e17734"></path>
    <path d="M361 387.167v-17.41c0-8.284-6.716-15-15-15s-15 6.716-15 15v17.41zm-60 0v-17.41c0-8.284-6.716-15-15-15s-15 6.716-15 15v17.41z" fill="#dc4e26"></path>
    <path d="M241 387.167v-17.41c0-8.284-6.716-15-15-15s-15 6.716-15 15v17.41zm-60 0v-17.41c0-8.284-6.716-15-15-15s-15 6.716-15 15v17.41z" fill="#e17734"></path>
  </symbol>
  <symbol xmlns="http://www.w3.org/2000/svg" viewBox="0 0 512 512" id="icon-4">
    <path d="M225.783 158.458l-35.778-54.471a95.701 95.701 0 00-79.989-43.161H15c-8.284 0-15 6.716-15 15v196.571c0 51.038 41.375 92.413 92.413 92.413h353.854v-67.491c0-52.854-42.846-95.7-95.7-95.7h-44.796a95.696 95.696 0 01-79.988-43.161z" fill="#738b2f"></path>
    <path d="M350.568 201.62h-44.796A95.652 95.652 0 01256 187.648v177.163h190.267v-67.492c0-52.853-42.846-95.699-95.699-95.699z" fill="#5b7726"></path>
    <path d="M376 279.07c-6.286 0-11.981-4.063-14.115-9.952-2.128-5.871-.236-12.702 4.605-16.648 4.862-3.962 11.83-4.488 17.216-1.265 5.366 3.211 8.241 9.658 7.004 15.795-1.394 6.918-7.643 12.07-14.71 12.07zm-60 0c-6.286 0-11.981-4.064-14.115-9.952-2.129-5.872-.238-12.7 4.605-16.648 4.862-3.962 11.83-4.488 17.217-1.265 5.365 3.211 8.241 9.657 7.004 15.795-1.396 6.919-7.642 12.07-14.711 12.07z" fill="#3b4a17"></path>
    <path d="M196 279.07c-6.286 0-11.981-4.064-14.115-9.952-2.126-5.866-.244-12.708 4.605-16.648 4.869-3.956 11.824-4.492 17.217-1.265 5.367 3.212 8.241 9.657 7.004 15.795-1.395 6.919-7.643 12.07-14.711 12.07zm0-60c-6.541 0-12.437-4.411-14.35-10.649-1.916-6.248.612-13.195 6.02-16.83 4.923-3.309 11.52-3.308 16.485-.109 5.169 3.331 7.812 9.747 6.503 15.752-1.484 6.805-7.671 11.836-14.658 11.836zm-60 60c-6.286 0-11.981-4.064-14.115-9.952-2.126-5.866-.244-12.708 4.605-16.648 4.87-3.956 11.824-4.492 17.217-1.265 5.366 3.211 8.241 9.657 7.004 15.795-1.395 6.919-7.643 12.07-14.711 12.07zm0-60c-6.416 0-12.207-4.234-14.235-10.299-2.031-6.072.186-12.943 5.308-16.752 5.056-3.759 12.217-3.917 17.408-.323 5.091 3.526 7.582 9.978 6.068 16.001-1.657 6.589-7.735 11.373-14.549 11.373zm0-60c-6.415 0-12.208-4.234-14.235-10.299-2.023-6.049.167-12.971 5.308-16.75 5.103-3.752 12.175-3.911 17.41-.317 5.1 3.501 7.575 9.985 6.066 15.99-1.657 6.588-7.732 11.376-14.549 11.376zm-60 120c-6.286 0-11.981-4.064-14.115-9.952-2.126-5.864-.241-12.711 4.605-16.648 4.869-3.956 11.824-4.492 17.216-1.265 5.366 3.211 8.241 9.657 7.004 15.795-1.394 6.919-7.642 12.07-14.71 12.07zm0-60c-6.173 0-11.849-3.945-14.027-9.707-2.17-5.74-.535-12.476 4.094-16.535 4.929-4.321 12.2-4.937 17.796-1.533 5.407 3.29 8.168 9.94 6.759 16.093C89.08 214.121 82.929 219.07 76 219.07zm0-60c-6.286 0-11.981-4.064-14.115-9.952-2.127-5.867-.244-12.708 4.605-16.648 4.866-3.953 11.825-4.494 17.216-1.269 5.364 3.209 8.244 9.665 7.004 15.799-1.399 6.919-7.638 12.07-14.71 12.07zm180 120c-6.286 0-11.981-4.064-14.115-9.952-2.126-5.866-.244-12.708 4.605-16.648 4.869-3.956 11.824-4.492 17.217-1.265 5.367 3.212 8.241 9.657 7.004 15.795-1.395 6.919-7.643 12.07-14.711 12.07z" fill="#5b7726"></path>
    <path d="M263.706 251.205a14.926 14.926 0 00-7.706-2.102v29.967c7.068 0 13.316-5.151 14.71-12.069 1.237-6.139-1.637-12.584-7.004-15.796z" fill="#3b4a17"></path>
    <path d="M453.165 451.174c-6.784 0-12.934-4.634-14.578-11.521l-10-41.899c-1.923-8.059 3.05-16.149 11.108-18.072 8.06-1.922 16.149 3.05 18.073 11.108l10 41.899c1.923 8.059-3.05 16.149-11.108 18.072a15.065 15.065 0 01-3.495.413z" fill="#3d3532"></path>
    <path d="M58.835 451.174c-1.154 0-2.324-.133-3.495-.413-8.058-1.923-13.031-10.014-11.108-18.072l10-41.899c1.924-8.059 10.017-13.034 18.073-11.108 8.058 1.923 13.031 10.014 11.108 18.072l-10 41.899c-1.644 6.887-7.794 11.521-14.578 11.521z" fill="#635551"></path>
    <path d="M469.308 394.868H42.692C19.114 394.868 0 375.754 0 352.176s19.114-42.692 42.692-42.692h426.616c23.578 0 42.692 19.114 42.692 42.692s-19.114 42.692-42.692 42.692z" fill="#a0bd3a"></path>
    <path d="M469.308 309.484H256v85.384h213.308c23.578 0 42.692-19.114 42.692-42.692s-19.114-42.692-42.692-42.692z" fill="#738b2f"></path>
  </symbol>
  <symbol xmlns="http://www.w3.org/2000/svg" viewBox="0 0 512 512" id="icon-5">
    <path d="M131.88 206.311L74.384 352.965c-3.033 7.736-11.872 11.597-19.752 8.628l-44.81-16.882C1.93 341.738-2.011 333.04 1.024 325.29l82.251-210.028 48.605 34.163z" fill="#738b2f"></path>
    <path d="M380.12 206.311l57.496 146.654c3.033 7.736 11.872 11.597 19.752 8.628l44.81-16.882c7.892-2.974 11.833-11.672 8.798-19.421l-82.251-210.028-48.605 34.163z" fill="#5b7726"></path>
    <path d="M338.398 284.466l90.327-169.203-110.776-62.58V15.024C317.949 6.726 311.1 0 302.653 0h-93.486c-8.448 0-15.296 6.726-15.296 15.024v37.659l-110.776 62.58 90.327 169.203a45.77 45.77 0 011.005 41.199l-66.622 140.822c-3.839 8.115.35 17.707 8.982 20.567l14.811 4.907c80.642 26.719 167.981 26.719 248.624 0l14.81-4.907c8.633-2.86 12.822-12.452 8.983-20.567l-66.622-140.822a45.77 45.77 0 011.005-41.199z" fill="#a0bd3a"></path>
    <path d="M337.392 325.665a45.77 45.77 0 011.006-41.199l90.327-169.203-110.776-62.58V15.024C317.949 6.726 311.1 0 302.653 0H255.91v512c41.995 0 83.991-6.68 124.312-20.039l14.81-4.907c8.633-2.86 12.822-12.452 8.982-20.567z" fill="#738b2f"></path>
    <path d="M275.28 367.961c-6.38 0-12.253-4.055-14.389-9.962-2.136-5.906-.266-12.69 4.69-16.67 4.955-3.979 12.062-4.486 17.558-1.272 5.469 3.197 8.412 9.683 7.141 15.815-1.439 6.939-7.771 12.089-15 12.089zm0-72.845c-6.379 0-12.253-4.055-14.389-9.962-2.133-5.898-.27-12.706 4.69-16.68 4.956-3.971 12.069-4.471 17.558-1.262 5.469 3.198 8.412 9.682 7.141 15.815-1.438 6.938-7.772 12.089-15 12.089zm0-72.845c-6.379 0-12.253-4.055-14.389-9.962s-.267-12.689 4.69-16.67c4.956-3.979 12.062-4.486 17.558-1.272 5.47 3.198 8.412 9.682 7.141 15.815-1.438 6.938-7.772 12.089-15 12.089zm0-72.845c-6.378 0-12.253-4.056-14.389-9.962-2.133-5.899-.27-12.706 4.69-16.68 4.961-3.975 12.065-4.474 17.558-1.262 5.469 3.198 8.413 9.681 7.141 15.815-1.438 6.937-7.772 12.089-15 12.089z" fill="#a0bd3a"></path>
    <path d="M240.619 511.7c10.193.394 20.398.394 30.592 0V0h-30.592z" fill="#738b2f"></path>
    <path d="M255.91 0v511.996c5.101 0 10.203-.098 15.301-.296V0z" fill="#5b7726"></path>
  </symbol>
  <symbol xmlns="http://www.w3.org/2000/svg" viewBox="0 0 512 512" id="icon-6">
    <path d="M347.402 512c-8.413 0-15.234-6.716-15.234-15V297.344c0-8.284 6.82-15 15.234-15 8.413 0 15.234 6.716 15.234 15V497c0 8.284-6.82 15-15.234 15z" fill="#e17734"></path>
    <path d="M164.598 512c-8.413 0-15.234-6.716-15.234-15V297.344c0-8.284 6.821-15 15.234-15s15.234 6.716 15.234 15V497c-.001 8.284-6.821 15-15.234 15z" fill="#e79e37"></path>
    <path d="M286.687 512c-8.413 0-15.234-6.716-15.234-15V263.227c0-8.284 6.82-15 15.234-15 8.413 0 15.234 6.716 15.234 15V497c-.001 8.284-6.821 15-15.234 15z" fill="#e17734"></path>
    <path d="M225.752 512c-8.413 0-15.234-6.716-15.234-15V263.227c0-8.284 6.82-15 15.234-15 8.413 0 15.234 6.716 15.234 15V497c0 8.284-6.821 15-15.234 15z" fill="#e79e37"></path>
    <path d="M268.429 57.886c-4.17 0-8.313.204-12.429.576a138.01 138.01 0 00-12.429-.576c-138.161 0-180.245 180.045-180.179 180.084 48.573 28.412 71.253 56.344 81.457 73.398 4.598 7.685 15.032 9.732 22.232 4.319 24.686-18.559 55.492-29.622 88.918-29.747 33.427.125 64.233 11.188 88.918 29.747 7.2 5.413 17.634 3.366 22.232-4.319 10.205-17.053 32.884-44.986 81.457-73.398.068-.039-42.016-180.084-180.177-180.084z" fill="#ecbd3e"></path>
    <path d="M268.429 57.886c-3.858 0-7.691.181-11.502.502v227.565c33.069.324 63.535 11.347 87.992 29.734 7.2 5.413 17.634 3.366 22.232-4.319 10.205-17.053 32.884-44.986 81.457-73.398.066-.039-42.018-180.084-180.179-180.084z" fill="#e79e37"></path>
    <path d="M511.31 193.448C475.835 81.995 376.044 1.398 258.105.032v-.02c-.39-.001-.778-.012-1.168-.012-.313 0-.624.009-.937.01-.313-.001-.624-.01-.937-.01-.39 0-.778.011-1.168.013v.02C135.956 1.398 36.165 81.995.69 193.448c-2.287 7.185 1.279 14.917 8.234 18.045 15.41 6.933 41.691 19.022 54.169 26.306l.299.171C87.094 149.802 164.408 84.314 256 83.869c91.592.445 168.906 65.933 192.607 154.101l.299-.171c12.479-7.284 38.759-19.373 54.169-26.306 6.956-3.129 10.522-10.861 8.235-18.045z" fill="#e17734"></path>
    <path d="M511.31 193.448C475.835 81.995 376.044 1.398 258.105.032v-.02c-.39-.001-.778-.012-1.168-.012h-.01v83.884c91.185.881 168.06 66.216 191.681 154.086l.299-.171c12.479-7.284 38.759-19.373 54.169-26.306 6.955-3.129 10.521-10.861 8.234-18.045z" fill="#dc4e26"></path>
    <path d="M347 258.67c-8.284 0-15-6.716-15-15v-13.725c0-8.284 6.716-15 15-15s15 6.716 15 15v13.725c0 8.284-6.716 15-15 15zm-60-30c-8.284 0-15-6.716-15-15v-13.725c0-8.284 6.716-15 15-15s15 6.716 15 15v13.725c0 8.284-6.716 15-15 15z" fill="#e17734"></path>
    <path d="M227 228.67c-8.284 0-15-6.716-15-15v-13.725c0-8.284 6.716-15 15-15s15 6.716 15 15v13.725c0 8.284-6.716 15-15 15zm-60 30c-8.284 0-15-6.716-15-15v-13.725c0-8.284 6.716-15 15-15s15 6.716 15 15v13.725c0 8.284-6.716 15-15 15z" fill="#e79e37"></path>
  </symbol>
  <symbol xmlns="http://www.w3.org/2000/svg" viewBox="0 0 512 512" id="icon-7">
    <path d="M256 265.974L84.965 374.02c-6.132 3.874-8.603 11.576-5.903 18.307C107.194 462.465 175.807 512 256 512s148.806-49.535 176.939-119.673c2.7-6.731.228-14.433-5.903-18.307z" fill="#edbc8b"></path>
    <path d="M427.035 374.021L256.008 265.978V512c80.19-.003 148.799-49.537 176.931-119.673 2.699-6.731.228-14.433-5.904-18.306z" fill="#e2a773"></path>
    <path d="M398.005 264.845V150.899c0-8.284 6.716-15 15-15h34.35c8.284 0 15 6.716 15 15v113.946c0 8.284-6.716 15-15 15h-34.35c-8.284 0-15-6.716-15-15z" fill="#7b493b"></path>
    <path d="M49.645 264.845V150.899c0-8.284 6.716-15 15-15h34.35c8.284 0 15 6.716 15 15v113.946c0 8.284-6.716 15-15 15h-34.35c-8.284 0-15-6.716-15-15zM312.973 64.35H199.027c-8.284 0-15-6.716-15-15V15c0-8.284 6.716-15 15-15h113.946c8.284 0 15 6.716 15 15v34.35c0 8.284-6.716 15-15 15z" fill="#b1705e"></path>
    <path d="M312.973 0h-56.965v64.35h56.965c8.284 0 15-6.716 15-15V15c0-8.284-6.716-15-15-15z" fill="#7b493b"></path>
    <circle cx="256.008" cy="207.872" fill="#e2a773" r="152.636"></circle>
    <path d="M256.008 55.237v305.271c84.298 0 152.635-68.337 152.635-152.635 0-84.299-68.337-152.636-152.635-152.636z" fill="#b1705e"></path>
    <path d="M256.008 296.773a88.395 88.395 0 01-49.668-15.201c-4.732-3.199 2.787-17.364-1.239-21.389-3.075-3.075-17.853 4.15-20.453.655-11.016-14.803-17.541-33.137-17.541-52.966a88.392 88.392 0 0115.201-49.667c2.64-3.905 16.568 1.084 19.779-2.348 3.65-3.901-3.339-16.149.955-19.345 14.803-11.016 33.137-17.542 52.967-17.542 19.829 0 38.162 6.525 52.966 17.542 3.495 2.601-3.224 15.667-.15 18.742 4.024 4.024 17.683-1.784 20.882 2.947a88.397 88.397 0 0115.204 49.671c0 19.829-6.526 38.163-17.542 52.967-2.601 3.495-15.469 2.06-18.543 5.135-4.024 4.024 1.585 12.398-3.145 15.596a88.408 88.408 0 01-49.673 15.203z" fill="#f1d0a7"></path>
    <path d="M256.008 118.971v177.803a88.39 88.39 0 0049.671-15.204c4.024-2.721-3.39-18.665.13-21.99 3.779-3.57 18.449 5.437 21.558 1.259 11.017-14.804 17.542-33.137 17.542-52.967 0-18.245-5.524-35.224-14.988-49.351-2.839-4.238-18.798 6.446-22.303 2.764s5.442-21.732 1.356-24.772c-14.804-11.017-33.137-17.542-52.966-17.542z" fill="#edbc8b"></path>
    <path d="M308.972 136.514l-52.965 52.965-52.964-52.965a89.639 89.639 0 00-20.735 21.69l52.487 52.487-50.144 50.144a89.643 89.643 0 0021.69 20.736l49.667-49.667 49.668 49.668a89.606 89.606 0 0021.69-20.736l-50.145-50.145 52.488-52.488a89.698 89.698 0 00-20.737-21.689z" fill="#e2a773"></path>
    <path d="M329.708 158.204a89.643 89.643 0 00-20.736-21.69l-52.964 52.964v42.427l49.667 49.667a89.606 89.606 0 0021.69-20.736l-50.145-50.145z" fill="#b1705e"></path>
  </symbol>
  <symbol xmlns="http://www.w3.org/2000/svg" viewBox="0 0 512 512" id="icon-8">
    <path d="M149.508 390.791c-8.284 0-15-6.716-15-15v-67.482c0-8.284 6.716-15 15-15s15 6.716 15 15v67.482c0 8.284-6.716 15-15 15z" fill="#e17734"></path>
    <path d="M149.394 175.726c74.312.248 309.257 90.587 309.257 90.587V25s-235.652 90.59-309.568 90.59l.424.133c-55.942 0-101.293 45.35-101.293 101.293 0 55.943 45.35 101.293 101.293 101.293h88.925c8.284 0 15 6.716 15 15v42.674h58.752V313.4c0-30.431-24.669-55.101-55.1-55.101l-107.577.009c-22.769 0-41.293-18.524-41.293-41.293.001-22.73 18.464-41.227 41.18-41.289z" fill="#ecbd3e"></path>
    <path d="M149.394 175.726c74.312.248 309.257 90.587 309.257 90.587V145.656H77.624c-18.176 18.309-29.409 43.521-29.409 71.359 0 55.943 45.35 101.293 101.293 101.293h88.925c8.284 0 15 6.716 15 15v42.674h58.752V313.4c0-30.431-24.669-55.101-55.1-55.101l-107.577.009c-22.769 0-41.293-18.524-41.293-41.293 0-22.73 18.463-41.227 41.179-41.289z" fill="#e79e37"></path>
    <path d="M413.651 41.712c-9.05 3.284-19.15 6.908-30 10.733v186.417a3479.41 3479.41 0 0130 10.735z" fill="#e79e37"></path>
    <path d="M383.651 145.656v93.206a3479.41 3479.41 0 0130 10.735V145.656z" fill="#e17734"></path>
    <path d="M458.651 291.312c-8.284 0-15-6.716-15-15V15c0-8.284 6.716-15 15-15s15 6.716 15 15v261.312c0 8.285-6.716 15-15 15z" fill="#e79e37"></path>
    <path d="M443.651 145.656v130.656c0 8.284 6.716 15 15 15s15-6.716 15-15V145.656z" fill="#e17734"></path>
    <path d="M73.349 375.983h360.169V497H73.349z" fill="#b1705e"></path>
    <path d="M253.434 375.983h180.085V497H253.434z" fill="#9e5f4e"></path>
    <path d="M373.518 450.983H133.349c-8.284 0-15-6.716-15-15s6.716-15 15-15h240.169c8.284 0 15 6.716 15 15s-6.716 15-15 15z" fill="#635551"></path>
    <path d="M373.518 420.983H253.434v30h120.084c8.284 0 15-6.716 15-15s-6.716-15-15-15z" fill="#504542"></path>
    <path d="M453.518 512H53.349c-8.284 0-15-6.716-15-15s6.716-15 15-15h400.169c8.284 0 15 6.716 15 15s-6.716 15-15 15z" fill="#9e5f4e"></path>
    <path d="M453.518 482H253.434v30h200.084c8.284 0 15-6.716 15-15s-6.716-15-15-15z" fill="#7b493b"></path>
    <path d="M453.518 390.983H53.349c-8.284 0-15-6.716-15-15s6.716-15 15-15h400.169c8.284 0 15 6.716 15 15s-6.716 15-15 15z" fill="#9e5f4e"></path>
    <path d="M453.518 360.983H253.434v30h200.084c8.284 0 15-6.716 15-15s-6.716-15-15-15z" fill="#7b493b"></path>
  </symbol>
  <symbol xmlns="http://www.w3.org/2000/svg" viewBox="0 0 512 512" id="icon-9">
    <path d="M280.101 334.778h-48.202c-24.814 0-45-20.186-45-45v-25.412c0-8.284 6.716-15 15-15s15 6.716 15 15v25.412c0 8.272 6.729 15 15 15h48.202c8.271 0 15-6.728 15-15v-25.412c0-8.284 6.716-15 15-15s15 6.716 15 15v25.412c0 24.813-20.186 45-45 45z" fill="#ecbd3e"></path>
    <path d="M310.101 249.366c-8.284 0-15 6.716-15 15v25.412c0 8.272-6.729 15-15 15H256v30h24.101c24.813 0 45-20.186 45-45v-25.412c0-8.284-6.716-15-15-15z" fill="#e79e37"></path>
    <path d="M256.001 289.547c-6.13 0-11.884-3.785-14.099-9.881l-12.594-34.654c-2.83-7.786 1.188-16.392 8.975-19.221 7.783-2.832 16.391 1.188 19.221 8.975l12.594 34.654c2.83 7.786-1.188 16.392-8.975 19.221-1.69.615-3.42.906-5.122.906z" fill="#ecbd3e"></path>
    <path d="M270.098 269.42l-12.594-34.654a15.046 15.046 0 00-1.504-3.008v57.789h.001c1.701 0 3.432-.291 5.122-.906 7.787-2.829 11.805-11.434 8.975-19.221zm47.331-94.191c-8.284 0-15-6.716-15-15v-22.654c0-8.284 6.716-15 15-15s15 6.716 15 15v22.654c0 8.284-6.716 15-15 15z" fill="#e79e37"></path>
    <path d="M199.376 153.148c-35.862-.179-68.912 18.74-87.002 49.542L34.402 335.455c-3.064 5.218-7.107 9.838-12.063 13.311C9.36 357.86.696 372.689.041 389.58c-1.219 31.469 24.602 56.474 56.018 54.267 27.169-1.908 48.617-24.553 48.617-52.207v-.117c-.019-8.373 2.095-16.61 6.49-23.737l51.591-83.659a44.865 44.865 0 0138.189-21.316h152.468c28.474 0 51.557-23.083 51.557-51.557 0 0-.06-58.285.005-58.106z" fill="#e79e37"></path>
    <path d="M404.975 153.148H256v109.664h97.413c28.474 0 51.557-23.083 51.557-51.557 0-.001-.06-58.286.005-58.107z" fill="#e17734"></path>
    <path d="M294.093 68.017c-14.934 0-28.438 6.881-38.094 17.92-9.656-11.039-23.16-17.92-38.093-17.92-8.284 0-15 6.716-15 15s6.716 15 15 15c12.733 0 23.093 12.946 23.093 28.859v74.027c0 8.284 6.716 15 15 15s15-6.716 15-15v-74.027c0-15.913 10.359-28.859 23.094-28.859 8.284 0 15-6.716 15-15s-6.716-15-15-15z" fill="#ecbd3e"></path>
    <path d="M294.093 68.017c-14.933 0-28.437 6.88-38.093 17.919v129.968c8.284 0 14.999-6.716 14.999-15v-74.027c0-15.913 10.359-28.859 23.094-28.859 8.284 0 15-6.716 15-15s-6.716-15.001-15-15.001z" fill="#e79e37"></path>
    <path d="M502 107.056l-47.68 33.651a91.302 91.302 0 01-46.009 12.44H302.429c0 35.029 28.396 63.425 63.425 63.425h42.457a91.304 91.304 0 0146.009 12.44L502 262.664l-10-82.039z" fill="#504542"></path>
    <path d="M497 273.161c-8.284 0-15-6.716-15-15V111.559c0-8.284 6.716-15 15-15s15 6.716 15 15v146.603c0 8.284-6.716 14.999-15 14.999zM69.202 368.835c-.191-2.758-3.123-4.423-5.594-3.185a46.493 46.493 0 01-17.621 4.813c-13.075.917-25.263-3.648-34.332-11.73-7.58 9.352-12.003 21.366-11.632 34.428.804 28.266 24.441 51.026 52.718 50.814 22.277-.167 41.227-14.259 48.615-33.996-17.558-5.71-30.782-21.592-32.154-41.144z" fill="#ecbd3e"></path>
  </symbol>
  <symbol xmlns="http://www.w3.org/2000/svg" viewBox="0 0 511.996 511.996" id="icon-10">
    <path d="M317.248 47.64c-5.595 0-11.114.617-16.471 1.807.144-1.463.221-2.946.221-4.447 0-24.813-20.186-45-45-45s-45 20.187-45 45c0 1.5.077 2.983.221 4.446a76.405 76.405 0 00-16.471-1.807c-41.799 0-75.805 34.006-75.805 75.805 0 21.126 8.695 40.252 22.684 54.012.047.048.087.095.136.143l52.823 51.609a14.93 14.93 0 00-3.588 9.72c0 8.284 6.716 15 15 15-8.284 0-15 6.716-15 15s6.716 15 15 15h20v58.029l-55.462.006c-8.284 0-15 6.716-15 15s6.716 15 15 15h13.428c-7.32.995-12.966 7.254-12.966 14.846 0 5.891 3.404 10.974 8.344 13.428h-8.344c-8.284 0-15 6.716-15 15s6.716 15 15 15h1.532a14.905 14.905 0 00-1.532 6.572c0 2.705.726 5.236 1.979 7.428h-1.979c-8.284 0-15 6.716-15 15s6.716 15 15 15h55v22.758c0 8.284 6.716 15 15 15h30c8.284 0 15-6.716 15-15V283.928h20c8.284 0 15-6.716 15-15s-6.716-15-15-15c8.284 0 15-6.716 15-15 0-3.564-1.249-6.833-3.325-9.407l50.812-50.26c.036-.036.067-.072.103-.108 15.029-13.861 24.464-33.701 24.464-55.71.001-41.797-34.005-75.803-75.804-75.803zM255.998 30c8.271 0 15 6.729 15 15s-6.728 15-15 15-15-6.729-15-15 6.728-15 15-15zm0 66.426c16.542 0 30 13.458 30 30s-13.458 30-30 30-30-13.458-30-30 13.458-30 30-30zm-61.25 72.823c-25.257 0-45.805-20.548-45.805-45.805s20.548-45.805 45.805-45.805a45.591 45.591 0 0120.477 4.822c-11.815 10.965-19.227 26.612-19.227 43.965 0 15.256 5.733 29.193 15.146 39.791a45.817 45.817 0 01-16.396 3.032zm85.902 54.679h-48.47l-25.777-25.596a75.647 75.647 0 0033.608-14.086 59.834 59.834 0 0015.987 2.18 59.8 59.8 0 0015.994-2.182c10.102 7.543 21.842 12.42 34.303 14.22zm36.598-54.679a45.765 45.765 0 01-16.398-3.03c9.414-10.599 15.148-24.536 15.148-39.794 0-17.344-7.405-32.984-19.21-43.948a45.746 45.746 0 0120.46-4.838c25.257 0 45.805 20.548 45.805 45.805s-20.548 45.805-45.805 45.805z" fill="#ecbd3e"></path>
    <path d="M317.248 47.64c-5.595 0-11.114.617-16.471 1.807.144-1.463.221-2.946.221-4.447 0-24.695-19.997-44.801-44.649-44.991v30.009c8.108.189 14.649 6.83 14.649 14.982s-6.541 14.793-14.649 14.982v36.453c16.38.19 29.649 13.567 29.649 29.991s-13.269 29.801-29.649 29.991v30.003a59.864 59.864 0 0015.643-2.175c10.102 7.543 21.842 12.42 34.303 14.22l-25.644 25.464H256.35v288.068h14.649c8.284 0 15-6.716 15-15V283.928h20c8.284 0 15-6.716 15-15s-6.716-15-15-15c8.284 0 15-6.716 15-15 0-3.564-1.249-6.833-3.325-9.407l50.812-50.26c.036-.036.067-.072.103-.108 15.029-13.861 24.464-33.701 24.464-55.71 0-41.797-34.006-75.803-75.805-75.803zm0 121.609a45.765 45.765 0 01-16.398-3.03c9.414-10.599 15.148-24.536 15.148-39.794 0-17.344-7.405-32.984-19.21-43.948a45.746 45.746 0 0120.46-4.838c25.257 0 45.805 20.548 45.805 45.805s-20.548 45.805-45.805 45.805z" fill="#e79e37"></path>
  </symbol>
  <symbol xmlns="http://www.w3.org/2000/svg" viewBox="0 0 511.326 511.326" id="icon-11">
    <path d="M165.324 389.13h-70c-8.284 0-15-6.716-15-15s6.716-15 15-15h70c8.284 0 15 6.716 15 15s-6.716 15-15 15z" fill="#e79e37"></path>
    <path d="M416.003 389.13h-70c-8.284 0-15-6.716-15-15s6.716-15 15-15h70c8.284 0 15 6.716 15 15s-6.716 15-15 15z" fill="#e17734"></path>
    <path d="M255.663 136.672c-20.975 0-40.463-13.542-54.874-38.131-12.634-21.556-20.877-50.833-23.21-82.437A15 15 0 01192.538 0h126.248a15 15 0 0114.959 16.104c-2.332 31.604-10.574 60.881-23.208 82.437-14.411 24.589-33.899 38.131-54.874 38.131zM209.275 30c7.099 47.773 28.452 76.672 46.388 76.672s39.29-28.9 46.388-76.672z" fill="#e79e37"></path>
    <path d="M329.777 4.791A15 15 0 00318.787 0h-63.093v30h46.356c-7.094 47.745-28.426 76.637-46.356 76.671v30.001c20.963-.014 40.439-13.554 54.844-38.131 12.634-21.556 20.876-50.833 23.208-82.437a15 15 0 00-3.969-11.313z" fill="#e17734"></path>
    <path d="M105.324 403.421c-8.284 0-15-6.716-15-15V220.839a15 15 0 0111.165-14.501l89.316-23.623a252.001 252.001 0 0118.925-4.229c-2.669-10.639-4.269-20.82-4.269-28 0-27.682 22.521-50.202 50.202-50.202s50.202 22.521 50.202 50.202c0 7.181-1.6 17.361-4.268 28a251.806 251.806 0 0118.926 4.229l89.316 23.624a15 15 0 0111.164 14.501v167.58c0 8.284-6.716 15-15 15s-15-6.716-15-15V232.388l-78.152-20.671a223.369 223.369 0 00-32.258-6.022 15 15 0 01-12.48-19.906c5.035-14.249 7.752-28.824 7.752-35.304 0-11.14-9.062-20.202-20.202-20.202s-20.202 9.062-20.202 20.202c0 6.48 2.717 21.056 7.752 35.305a14.998 14.998 0 01-12.48 19.905 223.326 223.326 0 00-32.258 6.022l-78.151 20.67v156.034c0 8.285-6.716 15-15 15z" fill="#ecbd3e"></path>
    <path d="M409.839 206.338l-89.316-23.624a251.314 251.314 0 00-18.926-4.229c2.669-10.639 4.268-20.819 4.268-28 0-27.671-22.504-50.184-50.171-50.201v30.001c11.125.017 20.171 9.071 20.171 20.201 0 6.48-2.717 21.056-7.752 35.304a14.998 14.998 0 0012.48 19.906 223.369 223.369 0 0132.258 6.022l78.152 20.671V388.42c0 8.284 6.716 15 15 15s15-6.716 15-15V220.84a15.002 15.002 0 00-11.164-14.502z" fill="#e79e37"></path>
    <path d="M255.663 160.283c-8.284 0-15-6.716-15-15V96.715c0-8.284 6.716-15 15-15s15 6.716 15 15v48.568c0 8.284-6.716 15-15 15z" fill="#ecbd3e"></path>
    <path d="M255.694 81.717v78.565c8.27-.017 14.969-6.725 14.969-14.998V96.715c0-8.273-6.699-14.981-14.969-14.998z" fill="#e79e37"></path>
    <path d="M255.663 511.326c-17.008 0-33.902-2.187-50.21-6.5l-37.92-10.03a15 15 0 01-11.165-14.501v-212.33a15 15 0 0111.165-14.501l37.92-10.03c16.307-4.313 33.2-6.5 50.21-6.5 17.011 0 33.903 2.187 50.209 6.5l37.921 10.03a15 15 0 0111.164 14.501v212.329a15 15 0 01-11.164 14.501l-37.921 10.03c-16.307 4.314-33.2 6.501-50.209 6.501z" fill="#ecbd3e"></path>
    <path d="M343.793 253.464l-37.921-10.03c-16.296-4.31-33.178-6.497-50.178-6.499v274.391c16.998-.003 33.88-2.189 50.178-6.5l37.921-10.03a15 15 0 0011.164-14.501V267.966a15 15 0 00-11.164-14.502z" fill="#e79e37"></path>
    <path d="M255.663 461.774c-13.983 0-27.702-1.776-41.021-5.299v-164.69c13.319-3.523 27.038-5.299 41.021-5.299s27.702 1.776 41.021 5.299v164.691c-13.319 3.522-27.038 5.298-41.021 5.298z" fill="#a0bd3a"></path>
    <path d="M255.701 286.487v175.287c13.97-.003 27.676-1.779 40.982-5.298V291.785c-13.306-3.52-27.012-5.295-40.982-5.298z" fill="#738b2f"></path>
  </symbol>
  <symbol xmlns="http://www.w3.org/2000/svg" viewBox="0 0 512 512" id="icon-12">
    <path d="M129.048 125.701H15c-8.284 0-15-6.716-15-15s6.716-15 15-15h114.048c8.284 0 15 6.716 15 15s-6.716 15-15 15z" fill="#7b493b"></path>
    <path d="M497 125.701H382.952c-8.284 0-15-6.716-15-15s6.716-15 15-15H497c8.284 0 15 6.716 15 15s-6.716 15-15 15z" fill="#2c2226"></path>
    <path d="M353.097 140.556c-16.489 0-29.855-13.367-29.855-29.855 0-16.489 13.367-29.855 29.855-29.855 16.489 0 29.855 13.367 29.855 29.855 0 16.489-13.366 29.855-29.855 29.855z" fill="#7b493b"></path>
    <path d="M158.903 140.556c-16.489 0-29.855-13.367-29.855-29.855 0-16.489 13.367-29.855 29.855-29.855 16.489 0 29.855 13.367 29.855 29.855 0 16.489-13.366 29.855-29.855 29.855zm134.483 0h-74.772c-16.489 0-29.855-13.367-29.855-29.855 0-16.489 13.367-29.855 29.855-29.855h74.772c16.489 0 29.855 13.367 29.855 29.855 0 16.489-13.366 29.855-29.855 29.855z" fill="#b1705e"></path>
    <path d="M293.386 80.846h-37.385v59.711h37.385c16.489 0 29.855-13.367 29.855-29.855s-13.366-29.856-29.855-29.856z" fill="#7b493b"></path>
    <path d="M448.133 257.031c-8.284 0-15-6.716-15-15v-13.894c0-8.284 6.716-15 15-15s15 6.716 15 15v13.894c0 8.284-6.715 15-15 15z" fill="#ecbd3e"></path>
    <path d="M448.133 213.137v43.894c8.284 0 15-6.716 15-15v-13.894c0-8.284-6.715-15-15-15z" fill="#e79e37"></path>
    <path d="M448.133 181.132c-8.284 0-15-6.716-15-15V91.701c0-8.284 6.716-15 15-15s15 6.716 15 15v74.431c0 8.284-6.715 15-15 15z" fill="#ecbd3e"></path>
    <path d="M448.133 76.701v104.431c8.284 0 15-6.716 15-15V91.701c0-8.284-6.715-15-15-15z" fill="#e79e37"></path>
    <path d="M408.12 223.755h80.027l-9.536-57.6a15 15 0 00-14.799-12.55h-31.357c-7.339 0-13.6 5.31-14.798 12.55z" fill="#e79e37"></path>
    <path d="M448.133 223.755h40.014l-9.536-57.6a15 15 0 00-14.799-12.55h-15.678v70.15z" fill="#e17734"></path>
    <path d="M497 243.137h-97.733c-8.284 0-15-6.716-15-15s6.716-15 15-15H497c8.284 0 15 6.716 15 15s-6.716 15-15 15z" fill="#504542"></path>
    <path d="M497 213.137h-48.867v30H497c8.284 0 15-6.716 15-15s-6.716-15-15-15z" fill="#182831"></path>
    <path d="M63.867 257.031c-8.284 0-15-6.716-15-15v-13.894c0-8.284 6.716-15 15-15s15 6.716 15 15v13.894c0 8.284-6.716 15-15 15z" fill="#ecbd3e"></path>
    <path d="M63.867 213.137v43.894c8.284 0 15-6.716 15-15v-13.894c0-8.284-6.716-15-15-15z" fill="#e79e37"></path>
    <path d="M63.867 181.132c-8.284 0-15-6.716-15-15V91.701c0-8.284 6.716-15 15-15s15 6.716 15 15v74.431c0 8.284-6.716 15-15 15z" fill="#ecbd3e"></path>
    <path d="M63.867 76.701v104.431c8.284 0 15-6.716 15-15V91.701c0-8.284-6.716-15-15-15z" fill="#e79e37"></path>
    <path d="M23.853 223.755h80.027l-9.536-57.6a15 15 0 00-14.799-12.55H48.188a15 15 0 00-14.799 12.55z" fill="#e79e37"></path>
    <path d="M63.867 223.755h40.014l-9.536-57.6a15 15 0 00-14.799-12.55H63.867z" fill="#e17734"></path>
    <path d="M112.733 243.137H15c-8.284 0-15-6.716-15-15s6.716-15 15-15h97.733c8.284 0 15 6.716 15 15s-6.715 15-15 15z" fill="#504542"></path>
    <path d="M112.733 213.137H63.867v30h48.867c8.284 0 15-6.716 15-15-.001-8.284-6.716-15-15.001-15z" fill="#182831"></path>
    <path d="M256 303.736c-8.284 0-15-6.716-15-15v-97c0-8.284 6.716-15 15-15s15 6.716 15 15v97c0 8.284-6.716 15-15 15z" fill="#e79e37"></path>
    <path d="M256.001 176.736v127c8.284-.001 14.999-6.716 14.999-15v-97c0-8.284-6.715-15-14.999-15z" fill="#e17734"></path>
    <path d="M323.241 222.736H188.758c-8.284 0-15-6.716-15-15V60.299c0-8.284 6.716-15 15-15s15 6.716 15 15v132.437h104.483V60.299c0-8.284 6.716-15 15-15s15 6.716 15 15v147.437c0 8.284-6.715 15-15 15z" fill="#ecbd3e"></path>
    <path d="M323.241 45.299c-8.284 0-15 6.716-15 15v132.437H256v30h67.241c8.284 0 15-6.716 15-15V60.299c0-8.284-6.715-15-15-15z" fill="#e79e37"></path>
    <path d="M418.601 451.701H93.399V309.539c0-16.988 13.772-30.76 30.76-30.76h263.682c16.988 0 30.76 13.772 30.76 30.76z" fill="#e17734"></path>
    <path d="M387.841 278.779h-131.84v172.922h162.6V309.539c0-16.988-13.772-30.76-30.76-30.76z" fill="#dc4e26"></path>
    <path d="M438.59 466.701H73.41c-8.284 0-15-6.716-15-15s6.716-15 15-15h365.18c8.284 0 15 6.716 15 15s-6.716 15-15 15z" fill="#504542"></path>
    <path d="M438.59 436.701H256.001v30H438.59c8.284 0 15-6.716 15-15s-6.716-15-15-15z" fill="#182831"></path>
    <circle cx="256" cy="361.701" fill="#635551" r="90"></circle>
    <path d="M256.001 271.701v180c49.626-.001 89.999-40.374 89.999-90s-40.374-90-89.999-90z" fill="#504542"></path>
    <circle cx="256" cy="361.701" fill="#ecbd3e" r="60"></circle>
    <path d="M256.001 301.701v120c33.084-.001 59.999-26.916 59.999-60s-26.916-60-59.999-60z" fill="#e79e37"></path>
    <circle cx="256" cy="361.701" fill="#e79e37" r="30"></circle>
    <path d="M256.001 331.701v60c16.542-.001 29.999-13.458 29.999-30s-13.457-30-29.999-30z" fill="#e17734"></path>
  </symbol>
  <symbol xmlns="http://www.w3.org/2000/svg" viewBox="0 0 512 512" id="icon-13">
    <g fill="#7b493b">
      <path d="M176.212 480.683a14.93 14.93 0 008.213-2.459c6.927-4.543 8.859-13.842 4.316-20.77L51.223 247.773c-4.543-6.927-13.84-8.858-20.77-4.316-6.927 4.543-8.859 13.842-4.316 20.77l137.518 209.681c2.88 4.39 7.671 6.775 12.557 6.775z"></path>
      <path d="M49.051 480.681c8.284 0 15-6.716 15-15V311.669c0-8.284-6.716-15-15-15s-15 6.716-15 15v154.012c0 8.284 6.716 15 15 15zm392.589-1.162c1.886 0 3.803-.357 5.658-1.114 7.671-3.127 11.354-11.881 8.227-19.553l-79.249-194.385c-3.128-7.671-11.88-11.356-19.553-8.227-7.671 3.127-11.355 11.881-8.227 19.553l79.249 194.385c2.371 5.816 7.979 9.341 13.895 9.341zm-136.031-.838c8.284 0 15-6.716 15-15V281.984c0-8.284-6.716-15-15-15s-15 6.716-15 15V463.68c0 8.285 6.716 15.001 15 15.001z"></path>
    </g>
    <path d="M496.609 220.977H373.398v-91.976h123.211z" fill="#ecbd3e"></path>
    <path d="M373.398 173.208h123.211v47.77H373.398z" fill="#e79e37"></path>
    <path d="M435.609 233.344c8.284 0 15-6.716 15-15v-86.709c0-8.284-6.716-15-15-15s-15 6.716-15 15v86.709c0 8.284 6.716 15 15 15z" fill="#e79e37"></path>
    <path d="M420.609 173.208v45.136c0 8.284 6.716 15 15 15s15-6.716 15-15v-45.136z" fill="#e17734"></path>
    <path d="M497 243.344c8.284 0 15-6.716 15-15V121.635c0-8.284-6.716-15-15-15s-15 6.716-15 15v106.709c0 8.284 6.716 15 15 15z" fill="#e79e37"></path>
    <path d="M482 173.208v55.136c0 8.284 6.716 15 15 15s15-6.716 15-15v-55.136zM54.114 331.251l308.762-63.644V82.372L54.114 18.728z" fill="#e17734"></path>
    <path d="M54.114 173.208v158.043l308.762-63.645v-94.398z" fill="#dc4e26"></path>
    <path d="M15 349.979h34.114c8.284 0 15-6.716 15-15V15c0-8.284-6.716-15-15-15H15C6.716 0 0 6.716 0 15v319.979c0 8.284 6.716 15 15 15z" fill="#b1705e"></path>
    <path d="M0 173.208v161.771c0 8.284 6.716 15 15 15h34.114c8.284 0 15-6.716 15-15V173.208z" fill="#9e5f4e"></path>
    <path d="M135.051 327.303c8.284 0 15-6.716 15-15V37.676c0-8.284-6.716-15-15-15s-15 6.716-15 15v274.627c0 8.284 6.716 15 15 15z" fill="#dc4e26"></path>
    <path d="M120.051 173.208v139.095c0 8.284 6.716 15 15 15s15-6.716 15-15V173.208z" fill="#ad2621"></path>
    <path d="M195.051 317.303c8.284 0 15-6.716 15-15V47.676c0-8.284-6.716-15-15-15s-15 6.716-15 15v254.627c0 8.284 6.716 15 15 15z" fill="#dc4e26"></path>
    <path d="M180.051 173.208v129.095c0 8.284 6.716 15 15 15s15-6.716 15-15V173.208z" fill="#ad2621"></path>
    <path d="M255.051 307.303c8.284 0 15-6.716 15-15V57.676c0-8.284-6.716-15-15-15s-15 6.716-15 15v234.627c0 8.284 6.716 15 15 15z" fill="#dc4e26"></path>
    <path d="M240.051 173.208v119.095c0 8.284 6.716 15 15 15s15-6.716 15-15V173.208z" fill="#ad2621"></path>
    <path d="M334.284 285.323h34.114c8.284 0 15-6.716 15-15V79.655c0-8.284-6.716-15-15-15h-34.114c-8.284 0-15 6.716-15 15v190.668c0 8.285 6.716 15 15 15z" fill="#b1705e"></path>
    <path d="M319.284 173.208v97.116c0 8.284 6.716 15 15 15h34.114c8.284 0 15-6.716 15-15v-97.116z" fill="#9e5f4e"></path>
    <path d="M0 512h481.609v-48.588c0-8.284-6.716-15-15-15H15c-8.284 0-15 6.716-15 15z" fill="#b1705e"></path>
    <path d="M466.609 448.412H240.805V512H481.61v-48.588c-.001-8.285-6.717-15-15.001-15z" fill="#9e5f4e"></path>
  </symbol>
  <symbol xmlns="http://www.w3.org/2000/svg" viewBox="0 0 512 512" id="icon-14">
    <path d="M256 512c-86.839 0-157.488-70.649-157.488-157.488S169.161 197.024 256 197.024s157.488 70.649 157.488 157.488S342.839 512 256 512zm0-284.976c-70.297 0-127.488 57.191-127.488 127.488S185.703 482 256 482s127.488-57.191 127.488-127.488S326.297 227.024 256 227.024z" fill="#ecbd3e"></path>
    <path d="M256 197.024v30c70.297 0 127.488 57.191 127.488 127.488S326.297 482 256 482v30c86.839 0 157.488-70.649 157.488-157.488S342.839 197.024 256 197.024z" fill="#e79e37"></path>
    <path d="M256 85.457l-38.079 27.666 14.545 44.765h47.068l14.545-44.765z" fill="#eff5ff"></path>
    <path d="M256 85.457v72.431h23.534l14.545-44.765z" fill="#dae7fd"></path>
    <path d="M256 85.457V0l119.354 86.715-81.275 26.408z" fill="#bfdafe"></path>
    <path d="M279.534 157.888l50.231 69.136 45.589-140.309-81.275 26.408z" fill="#86b1e5"></path>
    <path d="M217.921 113.123l-81.275-26.408 45.589 140.309 50.231-69.136z" fill="#bfdafe"></path>
    <path d="M256 85.457l-38.079 27.666-81.275-26.408L256 0z" fill="#dae7fd"></path>
    <path d="M232.466 157.888l-50.231 69.136h147.53l-50.231-69.136z" fill="#86b1e5"></path>
    <path d="M256 227.024h73.765l-50.231-69.136H256z" fill="#578df1"></path>
  </symbol>
  <symbol xmlns="http://www.w3.org/2000/svg" viewBox="0 0 512 512" id="icon-15">
    <path d="M431.631 372.691H79.481V133.144c0-52.322 42.415-94.737 94.737-94.737h162.675c52.322 0 94.737 42.415 94.737 94.737v239.547z" fill="#e17734"></path>
    <path d="M336.893 38.406h-81.337v334.285h176.075V133.143c0-52.321-42.416-94.737-94.738-94.737z" fill="#dc4e26"></path>
    <path d="M401.437 345.002l-145.881 10-144.993-10v-48.651c0-20.309 16.463-36.772 36.772-36.772h217.331c20.308 0 36.772 16.463 36.772 36.772v48.651z" fill="#e79e37"></path>
    <path d="M364.665 259.579H255.556v95.423l145.881-10v-48.651c0-20.308-16.463-36.772-36.772-36.772z" fill="#e17734"></path>
    <path d="M511.979 232.973c-.785-28.856-24.19-52.533-53.036-53.629-31.471-1.195-57.36 23.963-57.36 55.167 0 .106.007.209.008.315h-.154v110.175H110.563V234.827h-.154c.001-.106.008-.209.008-.315 0-31.356-26.14-56.606-57.817-55.148-28.306 1.303-51.27 24.294-52.543 52.601-.893 19.872 8.723 37.558 23.761 47.969 10.872 7.528 17.61 19.687 17.61 32.911v145.749c0 8.284 6.716 15 15 15h33.548c8.284 0 15-6.716 15-15v-50.221h302.049v50.221c0 8.284 6.716 15 15 15h33.548c8.284 0 15-6.716 15-15V312.845c0-13.224 6.737-25.383 17.61-32.911 14.781-10.235 24.325-27.5 23.796-46.961z" fill="#ecbd3e"></path>
    <path d="M511.979 232.973c-.785-28.856-24.19-52.533-53.036-53.629-31.471-1.195-57.36 23.963-57.36 55.167 0 .106.007.209.008.315h-.154v110.175H255.556v63.37h151.468v50.221c0 8.284 6.716 15 15 15h33.548c8.284 0 15-6.716 15-15V312.843c0-13.224 6.737-25.383 17.61-32.911 14.782-10.233 24.326-27.498 23.797-46.959z" fill="#e79e37"></path>
    <path d="M325.994 177.903c-6.287 0-11.98-4.052-14.115-9.946-2.133-5.888-.23-12.679 4.605-16.644 4.865-3.989 11.816-4.459 17.216-1.27 5.379 3.176 8.23 9.683 7.004 15.791-1.391 6.926-7.64 12.069-14.71 12.069z" fill="#ad2621"></path>
    <path d="M185.994 177.903c-6.287 0-11.98-4.051-14.115-9.946-2.13-5.88-.232-12.689 4.605-16.644 4.86-3.973 11.827-4.479 17.218-1.27 5.37 3.197 8.232 9.667 7.002 15.791-1.391 6.929-7.638 12.069-14.71 12.069z" fill="#dc4e26"></path>
    <path d="M455 249.483c-6.285 0-11.979-4.049-14.115-9.942-2.132-5.881-.235-12.692 4.605-16.648 4.872-3.982 11.81-4.462 17.216-1.27 5.377 3.175 8.239 9.693 7.004 15.801-1.4 6.921-7.641 12.059-14.71 12.059z" fill="#e17734"></path>
    <path d="M57 249.483c-6.537 0-12.44-4.395-14.35-10.64-1.909-6.239.598-13.209 6.02-16.83 4.938-3.297 11.505-3.314 16.484-.109 5.32 3.426 7.941 10.096 6.391 16.229-1.666 6.593-7.742 11.35-14.545 11.35z" fill="#e79e37"></path>
  </symbol>
  <symbol xmlns="http://www.w3.org/2000/svg" viewBox="0 0 512 512" id="icon-16">
    <ellipse cx="256" cy="33.515" fill="#ecbd3e" rx="33.515" ry="33.514" transform="rotate(-82.13 255.953 33.46)"></ellipse>
    <path d="M256 0v67.029c18.51 0 33.514-15.005 33.514-33.515S274.51 0 256 0z" fill="#e79e37"></path>
    <path d="M398.63 138.696l-146.288 22.372-138.972-22.372v-34.7c0-21.897 17.751-39.648 39.648-39.648h205.964c21.897 0 39.648 17.751 39.648 39.648z" fill="#504542"></path>
    <path d="M358.982 64.349H256v96.16l142.63-21.813v-34.7c0-21.896-17.751-39.647-39.648-39.647z" fill="#182831"></path>
    <path d="M167.577 512h-3.734c-16.568 0-30-13.431-30-30v-87.96c0-16.569 13.432-30 30-30h3.734c16.568 0 30 13.431 30 30V482c0 16.569-13.432 30-30 30z" fill="#504542"></path>
    <path d="M348.158 512h-3.735c-16.568 0-30-13.431-30-30v-87.96c0-16.569 13.432-30 30-30h3.735c16.569 0 30 13.431 30 30V482c0 16.569-13.432 30-30 30z" fill="#182831"></path>
    <path d="M415.912 138.696H96.088c-9.948 0-15.978 10.957-10.667 19.368 6.611 10.47 13.163 25.462 15.516 45.639 1.685 14.452-1.033 29.05-7.342 42.161a153.061 153.061 0 00-8.191 20.754l23.166 35.858-28.818 27.882C89.953 411.334 164.971 474.201 256 474.201s166.047-62.867 176.249-143.843l-28.818-30.882 23.102-33.062a153.128 153.128 0 00-8.127-20.55c-6.309-13.111-9.027-27.709-7.342-42.161 2.353-20.177 8.905-35.169 15.516-45.639 5.311-8.411-.72-19.368-10.668-19.368z" fill="#635551"></path>
    <path d="M403.431 299.477l23.102-33.062a153.128 153.128 0 00-8.127-20.55c-6.309-13.111-9.027-27.709-7.342-42.161 2.353-20.177 8.905-35.169 15.516-45.639 5.311-8.412-.72-19.368-10.667-19.368H256v335.505c91.029 0 166.046-62.867 176.249-143.843z" fill="#504542"></path>
    <path d="M78.569 311.477c0 6.387.415 12.685 1.196 18.88h352.47a150.16 150.16 0 00-5.651-63.734H85.416a150.128 150.128 0 00-6.847 44.854z" fill="#ecbd3e"></path>
    <path d="M426.584 266.622H256v63.734h176.235a150.106 150.106 0 00-5.651-63.734z" fill="#e79e37"></path>
  </symbol>
  <symbol xmlns="http://www.w3.org/2000/svg" viewBox="0 0 512 512" id="icon-17">
    <path d="M288.118 387.845c0-9.26-8.751-23.533-17.118-35.067v-95.044c0-8.284-6.716-15-15-15s-15 6.716-15 15v95.044c-8.367 11.535-17.118 25.808-17.118 35.067 0 9.26 8.751 23.532 17.118 35.067V497c0 8.284 6.716 15 15 15s15-6.716 15-15v-74.087c8.367-11.535 17.118-25.808 17.118-35.068z" fill="#e79e37"></path>
    <path d="M271 352.778v-95.044c0-8.284-6.716-15-15-15V512c8.284 0 15-6.716 15-15v-74.087c8.367-11.535 17.118-25.807 17.118-35.067s-8.751-23.533-17.118-35.068z" fill="#e17734"></path>
    <path d="M362.591 512H149.409c-8.284 0-15-6.716-15-15s6.716-15 15-15h213.182c8.284 0 15 6.716 15 15s-6.716 15-15 15z" fill="#ecbd3e"></path>
    <path d="M362.591 482H256v30h106.591c8.284 0 15-6.716 15-15s-6.716-15-15-15z" fill="#e79e37"></path>
    <path d="M436 333.691c-8.284 0-15-6.716-15-15v-60.957c0-8.284 6.716-15 15-15s15 6.716 15 15v60.957c0 8.285-6.716 15-15 15zm-60 0c-8.284 0-15-6.716-15-15v-60.957c0-8.284 6.716-15 15-15s15 6.716 15 15v60.957c0 8.285-6.716 15-15 15zm-60 0c-8.284 0-15-6.716-15-15v-60.957c0-8.284 6.716-15 15-15s15 6.716 15 15v60.957c0 8.285-6.716 15-15 15z" fill="#738b2f"></path>
    <path d="M196 333.691c-8.284 0-15-6.716-15-15v-60.957c0-8.284 6.716-15 15-15s15 6.716 15 15v60.957c0 8.285-6.716 15-15 15zm-60 0c-8.284 0-15-6.716-15-15v-60.957c0-8.284 6.716-15 15-15s15 6.716 15 15v60.957c0 8.285-6.716 15-15 15zm-60 0c-8.284 0-15-6.716-15-15v-60.957c0-8.284 6.716-15 15-15s15 6.716 15 15v60.957c0 8.285-6.716 15-15 15zm180 0c-8.284 0-15-6.716-15-15v-60.957c0-8.284 6.716-15 15-15s15 6.716 15 15v60.957c0 8.285-6.716 15-15 15z" fill="#a0bd3a"></path>
    <path d="M256 242.734v90.957c8.284 0 15-6.716 15-15v-60.957c0-8.284-6.716-15-15-15z" fill="#738b2f"></path>
    <path d="M293.274 1.515h-74.548c0 43.762-35.476 79.239-79.239 79.239C93.378 80.754 56 118.132 56 164.241v86.978h400v-86.978c0-46.109-37.378-83.487-83.487-83.487-43.763 0-79.239-35.477-79.239-79.239z" fill="#e17734"></path>
    <path d="M372.513 80.754c-43.762 0-79.239-35.477-79.239-79.239H256v249.704h200v-86.978c0-46.109-37.378-83.487-83.487-83.487z" fill="#dc4e26"></path>
    <path d="M309.547 30H202.453c-8.284 0-15-6.716-15-15s6.716-15 15-15h107.094c8.284 0 15 6.716 15 15s-6.716 15-15 15z" fill="#e79e37"></path>
    <path d="M309.547 0H256v30h53.547c8.284 0 15-6.716 15-15s-6.716-15-15-15z" fill="#e17734"></path>
    <path d="M456 272.734H56c-8.284 0-15-6.716-15-15s6.716-15 15-15h400c8.284 0 15 6.716 15 15 0 8.285-6.716 15-15 15z" fill="#e79e37"></path>
    <path d="M456 242.734H256v30h200c8.284 0 15-6.716 15-15s-6.716-15-15-15z" fill="#e17734"></path>
  </symbol>
  <symbol xmlns="http://www.w3.org/2000/svg" viewBox="0 0 512 512" id="icon-18">
    <path d="M137.165 285.414s-53.193-60.14-128.707-49.643c-4.771.663-8.303 4.789-8.303 9.606v28.343c0 3.922 2.365 7.436 5.98 8.957 24.266 10.212 59.107 35.822 72.213 99.798C99.305 484.772 151 471.155 151 471.155l55.629-105.232z" fill="#dc4e26"></path>
    <path d="M161.154 313.754c-8.284 0-15-6.716-15-15V111.869c-24.729-2.939-43.968-24.038-43.968-49.544 0-27.513 22.383-49.896 49.895-49.896H461.95c27.512 0 49.895 22.383 49.895 49.896 0 25.507-19.239 46.605-43.968 49.544v184.472c0 8.284-6.716 15-15 15s-15-6.716-15-15V97.219c0-8.284 6.716-15 15-15h9.073c10.97 0 19.895-8.925 19.895-19.894 0-10.97-8.925-19.896-19.895-19.896H152.081c-10.97 0-19.895 8.925-19.895 19.896 0 10.97 8.925 19.894 19.895 19.894h9.073c8.284 0 15 6.716 15 15v201.535c0 8.284-6.716 15-15 15z" fill="#b1705e"></path>
    <path d="M461.95 12.429H307.015v30H461.95c10.97 0 19.895 8.925 19.895 19.896 0 10.97-8.925 19.894-19.895 19.894h-9.073c-8.284 0-15 6.716-15 15v199.122c0 8.284 6.716 15 15 15s15-6.716 15-15V111.869c24.729-2.939 43.968-24.038 43.968-49.544-.001-27.513-22.384-49.896-49.895-49.896z" fill="#7b493b"></path>
    <path d="M360.836 54.859H253.195c-10.672 0-19.324-8.652-19.324-19.324V19.324C233.871 8.652 242.522 0 253.195 0h107.641c10.672 0 19.324 8.652 19.324 19.324v16.212c0 10.672-8.652 19.323-19.324 19.323z" fill="#e17734"></path>
    <path d="M360.836 0h-53.821v54.859h53.821c10.672 0 19.324-8.652 19.324-19.324V19.324C380.16 8.652 371.508 0 360.836 0zm62.57 269.121l-116.471 10-116.31-10v-3.699c0-32.824 26.609-59.434 59.434-59.434h113.913c32.825 0 59.434 26.609 59.434 59.434z" fill="#dc4e26"></path>
    <path d="M363.971 205.987h-56.956v73.126l116.39-9.993v-3.699c.001-32.824-26.609-59.434-59.434-59.434z" fill="#ad2621"></path>
    <circle cx="307.015" cy="176.491" fill="#e17734" transform="rotate(-80.8 306.976 176.53)" r="29.297"></circle>
    <path d="M307.015 147.195v58.594c16.18 0 29.297-13.117 29.297-29.297 0-16.181-13.117-29.297-29.297-29.297z" fill="#dc4e26"></path>
    <path d="M425.95 512H188.08c-39.809 0-72.08-32.271-72.08-72.08v-98.345c0-39.809 32.271-72.08 72.08-72.08h237.87c39.809 0 72.08 32.271 72.08 72.08v98.345c.001 39.809-32.271 72.08-72.08 72.08z" fill="#e17734"></path>
    <path d="M425.95 269.494H307.015V512H425.95c39.809 0 72.08-32.272 72.08-72.08v-98.345c.001-39.809-32.271-72.081-72.08-72.081z" fill="#dc4e26"></path>
    <path d="M446.887 387.983l-22.021 43.158c-1.856 3.637-7.052 3.637-8.908 0l-22.021-43.158a5.002 5.002 0 010-4.545l22.021-43.158c1.856-3.637 7.052-3.637 8.908 0l22.021 43.158a5.002 5.002 0 010 4.545z" fill="#edbc8b"></path>
    <path d="M220.094 387.983l-22.021 43.158c-1.856 3.637-7.052 3.637-8.908 0l-22.021-43.158a5.002 5.002 0 010-4.545l22.021-43.158c1.856-3.637 7.052-3.637 8.908 0l22.021 43.158a5.002 5.002 0 010 4.545zm113.396 0l-22.021 43.158c-1.856 3.637-7.052 3.637-8.907 0l-22.021-43.158a5.002 5.002 0 010-4.545l22.021-43.158c1.856-3.637 7.052-3.637 8.907 0l22.021 43.158a4.996 4.996 0 010 4.545z" fill="#f1d0a7"></path>
    <path d="M333.49 383.438l-22.021-43.158c-.928-1.818-2.691-2.727-4.454-2.727v96.316c1.763 0 3.526-.909 4.454-2.727l22.021-43.158a4.998 4.998 0 000-4.546z" fill="#edbc8b"></path>
  </symbol>
</svg>
